<svg width="559" height="559" viewBox="0 0 559 559" fill="none" xmlns="http://www.w3.org/2000/svg">
<path fill-rule="evenodd" clip-rule="evenodd" d="M372.262 0C475.395 0 559 83.6052 559 186.738V372.262C559 475.395 475.395 559 372.262 559H186.738C83.6052 559 2.44196e-06 475.395 0 372.262V186.738C0 83.6052 83.6052 2.44133e-06 186.738 0H372.262ZM499.702 58.5509C432.558 -8.8624 279.094 35.1258 156.93 156.801C34.7663 278.476 -9.83589 431.762 57.3075 499.175C124.451 566.588 277.915 522.601 400.078 400.926C522.242 279.251 566.845 125.964 499.702 58.5509Z" fill="white"/>
</svg>
